<svg xmlns="http://www.w3.org/2000/svg" height="20" viewBox="0 0 20 20" width="20" fill="#999999">
	<path d="M17.2,6.1c0.6,0.3,1.7,0.8,2.6,1c-0.8-0.8-1.7-1.5-2.8-2l-6.2-3l0,0C13,3.5,15.2,5,17.2,6.1z" />
	<path d="M9.1,11.1c1.6,0,3.2-0.1,3.9-0.4c1.6-0.6,2.8-2,3.8-4.2c-3.1-1.9-6.5-4.2-9.4-5.7C7.2,0.7,7,0.6,6.8,0.6l0,0c0,0-0.1,0-0.1,0C6.4,0.6,6.2,0.9,6,1.2c-0.2,3.4-0.6,6.5-0.9,9.9C6.2,11.1,7.6,11.1,9.1,11.1z" />
	<path d="M19.9,7.7c-0.9-0.3-1.7-0.6-2.6-1l0,0c-1,2.1-2.3,3.7-3.9,4.4l0.2,8.1c0.4-0.2,0.5-0.4,0.7-0.8l5.6-10.2C20,8,20,7.8,19.9,7.7z" />
	<path d="M1.2,14.3c0.5-0.2,1.1-0.6,1.7-1.1c0.2-0.2,1.7-1.5,1.8-1.8C5,8.2,5.2,5.2,5.4,2l0,0C3.5,5.5,1.9,8.4,0,12c0,1,0.2,1.5,0.4,1.9C0.6,14.2,0.9,14.3,1.2,14.3z" />
	<path d="M13,11.3c-0.9,0.3-2.4,0.3-3.9,0.3c-1.3,0-3-0.1-4.1,0.1c-0.6,0.6-1.3,1.2-1.9,1.8c-0.6,0.5-1.1,1-1.9,1.2c-0.1,0-0.1,0-0.2,0c0.3,0.2,0.5,0.4,0.8,0.6l10.2,4.1c0.1,0,0.6,0.2,1.1,0L13,11.3L13,11.3z" />
</svg>